<?xml version="1.0" encoding="utf-8"?>
<svg id="master-artboard" viewBox="0 0 1400 980" version="1.1" xmlns="http://www.w3.org/2000/svg" x="0px" y="0px" width="1400px" height="980px" enable-background="new 0 0 1400 980">
<path fill="none" stroke="#DE212F" stroke-width="7" stroke-linecap="round" stroke-linejoin="round" stroke-miterlimit="10" d="&#10;&#9;&#9;M483.5,444.5H618c7.5,0,13.6,6.1,13.6,13.6v108.7c0,7.5-6.1,13.6-13.6,13.6H443.1c-7.5,0-13.6-6.1-13.6-13.6V458.1&#10;&#9;&#9;c0-7.5,6.1-13.6,13.6-13.6H465" transform="matrix(1, 0, 0, 1, 0, -7.105427357601002e-15)"/><path fill="none" stroke="#DE212F" stroke-width="7" stroke-linecap="round" stroke-linejoin="round" stroke-miterlimit="10" d="&#10;&#9;&#9;M483.5,444.5" transform="matrix(1, 0, 0, 1, 0, -7.105427357601002e-15)"/><path fill="none" stroke="#DE212F" stroke-width="7" stroke-linecap="round" stroke-linejoin="round" stroke-miterlimit="10" d="&#10;&#9;&#9;M465,444.5" transform="matrix(1, 0, 0, 1, 0, -7.105427357601002e-15)"/><path fill="none" stroke="#DE212F" stroke-width="7" stroke-linecap="round" stroke-linejoin="round" stroke-miterlimit="10" d="&#10;&#9;&#9;M747.6,497.5L747.6,497.5c-32.5,0-59-26.5-59-59v-24c0-32.4,26.5-59,59-59h0c32.4,0,59,26.5,59,59v24&#10;&#9;&#9;C806.6,470.9,780,497.5,747.6,497.5z" transform="matrix(1, 0, 0, 1, 0, -7.105427357601002e-15)"/><path fill="none" stroke="#DE212F" stroke-width="7" stroke-linecap="round" stroke-linejoin="round" stroke-miterlimit="10" d="&#10;&#9;&#9;M819.3,447.8H806v-41.7h13.4c5.3,0,9.6,4.3,9.6,9.6v22.5C828.9,443.5,824.6,447.8,819.3,447.8z" transform="matrix(1, 0, 0, 1, 0, -7.105427357601002e-15)"/><path fill="none" stroke="#DE212F" stroke-width="7" stroke-linecap="round" stroke-linejoin="round" stroke-miterlimit="10" d="&#10;&#9;&#9;M675.8,447.8h13.4v-41.7h-13.4c-5.3,0-9.6,4.3-9.6,9.6v22.5C666.2,443.5,670.5,447.8,675.8,447.8z" transform="matrix(1, 0, 0, 1, 0, -7.105427357601002e-15)"/><path fill="none" stroke="#DE212F" stroke-width="7" stroke-linecap="round" stroke-linejoin="round" stroke-miterlimit="10" d="&#10;&#9;&#9;M708.9,344.3c11-7.5,24.3-11.9,38.7-11.9h0c38,0,68.8,30.8,68.8,68.8v4.8" transform="matrix(1, 0, 0, 1, 0, -7.105427357601002e-15)"/><path fill="none" stroke="#DE212F" stroke-width="7" stroke-linecap="round" stroke-linejoin="round" stroke-miterlimit="10" d="&#10;&#9;&#9;M678.7,406.1v-4.8c0-17.6,6.6-33.7,17.5-45.8" transform="matrix(1, 0, 0, 1, 0, -7.105427357601002e-15)"/><path d="M 863.799988 365.200012 L 863.799988 385.5" fill="none" stroke="#DE212F" stroke-width="7" stroke-linecap="round" stroke-linejoin="round" stroke-miterlimit="10" transform="matrix(1, 0, 0, 1, 0, -1.4210854715202004e-14)"/><path d="M 873.900024 375.299988 L 853.700012 375.299988" fill="none" stroke="#DE212F" stroke-width="7" stroke-linecap="round" stroke-linejoin="round" stroke-miterlimit="10" transform="matrix(1, 0, 0, 1, 0, -1.4210854715202004e-14)"/><path d="M 1024.5 591.299988 L 1024.5 611.5" fill="none" stroke="#DE212F" stroke-width="7" stroke-linecap="round" stroke-linejoin="round" stroke-miterlimit="10" transform="matrix(1, 0, 0, 1, 0, -1.4210854715202004e-14)"/><path d="M 1034.599976 601.400024 L 1014.400024 601.400024" fill="none" stroke="#DE212F" stroke-width="7" stroke-linecap="round" stroke-linejoin="round" stroke-miterlimit="10" transform="matrix(1, 0, 0, 1, 0, -1.4210854715202004e-14)"/><path d="M 336.5 761.299988 L 336.5 781.599976" fill="none" stroke="#DE212F" stroke-width="7" stroke-linecap="round" stroke-linejoin="round" stroke-miterlimit="10" transform="matrix(1, 0, 0, 1, 0, -1.4210854715202004e-14)"/><path d="M 346.600006 771.5 L 326.399994 771.5" fill="none" stroke="#DE212F" stroke-width="7" stroke-linecap="round" stroke-linejoin="round" stroke-miterlimit="10" transform="matrix(1, 0, 0, 1, 0, -1.4210854715202004e-14)"/><path d="M 369.100006 462.5 L 369.100006 482.799988" fill="none" stroke="#DE212F" stroke-width="7" stroke-linecap="round" stroke-linejoin="round" stroke-miterlimit="10" transform="matrix(1, 0, 0, 1, 0, -1.4210854715202004e-14)"/><path d="M 379.299988 472.700012 L 359 472.700012" fill="none" stroke="#DE212F" stroke-width="7" stroke-linecap="round" stroke-linejoin="round" stroke-miterlimit="10" transform="matrix(1, 0, 0, 1, 0, -1.4210854715202004e-14)"/><path d="M 515.200012 721.400024 L 500.899994 735.700012" fill="none" stroke="#DE212F" stroke-width="7" stroke-linecap="round" stroke-linejoin="round" stroke-miterlimit="10" transform="matrix(1, 0, 0, 1, 0, -1.4210854715202004e-14)"/><path d="M 515.200012 735.700012 L 500.899994 721.400024" fill="none" stroke="#DE212F" stroke-width="7" stroke-linecap="round" stroke-linejoin="round" stroke-miterlimit="10" transform="matrix(1, 0, 0, 1, 0, -1.4210854715202004e-14)"/><path d="M 537.700012 129.399994 L 523.400024 143.800003" fill="none" stroke="#DE212F" stroke-width="7" stroke-linecap="round" stroke-linejoin="round" stroke-miterlimit="10" transform="matrix(1, 0, 0, 1, 0, -1.4210854715202004e-14)"/><path d="M 537.700012 143.800003 L 523.400024 129.399994" fill="none" stroke="#DE212F" stroke-width="7" stroke-linecap="round" stroke-linejoin="round" stroke-miterlimit="10" transform="matrix(1, 0, 0, 1, 0, -1.4210854715202004e-14)"/><path d="M 1153 699 L 1138.599976 713.400024" fill="none" stroke="#DE212F" stroke-width="7" stroke-linecap="round" stroke-linejoin="round" stroke-miterlimit="10" transform="matrix(1, 0, 0, 1, 0, -1.4210854715202004e-14)"/><path d="M 1153 713.400024 L 1138.599976 699" fill="none" stroke="#DE212F" stroke-width="7" stroke-linecap="round" stroke-linejoin="round" stroke-miterlimit="10" transform="matrix(1, 0, 0, 1, 0, -1.4210854715202004e-14)"/><path d="M 795.099976 787.099976 L 780.799988 801.400024" fill="none" stroke="#DE212F" stroke-width="7" stroke-linecap="round" stroke-linejoin="round" stroke-miterlimit="10" transform="matrix(1, 0, 0, 1, 0, -1.4210854715202004e-14)"/><path d="M 795.099976 801.400024 L 780.799988 787.099976" fill="none" stroke="#DE212F" stroke-width="7" stroke-linecap="round" stroke-linejoin="round" stroke-miterlimit="10" transform="matrix(1, 0, 0, 1, 0, -1.4210854715202004e-14)"/><path d="M 582.400024 312.200012 L 582.400024 332.399994" fill="none" stroke="#DE212F" stroke-width="7" stroke-linecap="round" stroke-linejoin="round" stroke-miterlimit="10" transform="matrix(1, 0, 0, 1, 0, -1.4210854715202004e-14)"/><path d="M 592.5 322.299988 L 572.299988 322.299988" fill="none" stroke="#DE212F" stroke-width="7" stroke-linecap="round" stroke-linejoin="round" stroke-miterlimit="10" transform="matrix(1, 0, 0, 1, 0, -1.4210854715202004e-14)"/><path d="M 896.599976 685.900024 L 896.599976 706.200012" fill="none" stroke="#DE212F" stroke-width="7" stroke-linecap="round" stroke-linejoin="round" stroke-miterlimit="10" transform="matrix(1, 0, 0, 1, 0, -1.4210854715202004e-14)"/><path d="M 906.700012 696.099976 L 886.5 696.099976" fill="none" stroke="#DE212F" stroke-width="7" stroke-linecap="round" stroke-linejoin="round" stroke-miterlimit="10" transform="matrix(1, 0, 0, 1, 0, -1.4210854715202004e-14)"/><path fill="none" stroke="#DE212F" stroke-width="7" stroke-linecap="round" stroke-linejoin="round" stroke-miterlimit="10" d="&#10;&#9;&#9;M689.2,423.8c0,0,47.7,9.8,88.4-48.5" transform="matrix(1, 0, 0, 1, 0, -7.105427357601002e-15)"/><path fill="none" stroke="#DE212F" stroke-width="7" stroke-linecap="round" stroke-linejoin="round" stroke-miterlimit="10" d="&#10;&#9;&#9;M769.9,385.5c0,0,9.2,34.3,36.1,31.7" transform="matrix(1, 0, 0, 1, 0, -7.105427357601002e-15)"/><path fill="none" stroke="#DE212F" stroke-width="7" stroke-linecap="round" stroke-linejoin="round" stroke-miterlimit="10" d="&#10;&#9;&#9;M760.9,466c0,7.4-6,13.3-13.3,13.3s-13.3-6-13.3-13.3H760.9z" transform="matrix(1, 0, 0, 1, 0, -7.105427357601002e-15)"/><path d="M 515.599976 580.400024 H 545.399975 V 618.500023 H 515.599976 V 580.400024 Z" fill="none" stroke="#DE212F" stroke-width="7" stroke-linecap="round" stroke-linejoin="round" stroke-miterlimit="10" transform="matrix(1, 0, 0, 1, 0, -7.105427357601002e-15)"/><path fill="none" stroke="#DE212F" stroke-width="7" stroke-linecap="round" stroke-linejoin="round" stroke-miterlimit="10" d="&#10;&#9;&#9;M564.9,633.2h-68.8c-4,0-7.3-3.3-7.3-7.3l0,0c0-4,3.3-7.3,7.3-7.3h68.8c4,0,7.3,3.3,7.3,7.3l0,0C572.3,629.9,569,633.2,564.9,633.2&#10;&#9;&#9;z" transform="matrix(1, 0, 0, 1, 0, -7.105427357601002e-15)"/><path fill="none" stroke="#DE212F" stroke-width="7" stroke-linecap="round" stroke-linejoin="round" stroke-miterlimit="10" d="&#10;&#9;&#9;M921.9,633.2h-68.8c-4,0-7.3-3.3-7.3-7.3l0,0c0-4,3.3-7.3,7.3-7.3h68.8c4,0,7.3,3.3,7.3,7.3l0,0&#10;&#9;&#9;C929.2,629.9,925.9,633.2,921.9,633.2z" transform="matrix(1, 0, 0, 1, 0, -7.105427357601002e-15)"/><path d="M 473.600006 633.200012 L 944.599976 633.200012" fill="none" stroke="#DE212F" stroke-width="7" stroke-linecap="round" stroke-linejoin="round" stroke-miterlimit="10" transform="matrix(1, 0, 0, 1, 0, -7.105427357601002e-15)"/><path d="M 961.599976 633.200012 L 978.599976 633.200012" fill="none" stroke="#DE212F" stroke-width="7" stroke-linecap="round" stroke-linejoin="round" stroke-miterlimit="10" transform="matrix(1, 0, 0, 1, 0, -7.105427357601002e-15)"/><path fill="none" stroke="#DE212F" stroke-width="7" stroke-linecap="round" stroke-linejoin="round" stroke-miterlimit="10" d="&#10;&#9;&#9;M738.9,622h-42.7v-6c0-11.2,9-20.2,20.2-20.2h22.5V622z" transform="matrix(1, 0, 0, 1, 0, -7.105427357601002e-15)"/><path fill="none" stroke="#DE212F" stroke-width="7" stroke-linecap="round" stroke-linejoin="round" stroke-miterlimit="10" d="&#10;&#9;&#9;M738.9,595.8h28c11.6,0,21-9.4,21-21V548" transform="matrix(1, 0, 0, 1, 0, -7.105427357601002e-15)"/><path fill="none" stroke="#DE212F" stroke-width="7" stroke-linecap="round" stroke-linejoin="round" stroke-miterlimit="10" d="&#10;&#9;&#9;M822.9,562.4v26.8c0,24.2-19.7,43.9-43.9,43.9h-1" transform="matrix(1, 0, 0, 1, 0, -7.105427357601002e-15)"/><path fill="none" stroke="#DE212F" stroke-width="7" stroke-linecap="round" stroke-linejoin="round" stroke-miterlimit="10" d="&#10;&#9;&#9;M822.9,562.4" transform="matrix(1, 0, 0, 1, 0, -7.105427357601002e-15)"/><path fill="none" stroke="#DE212F" stroke-width="7" stroke-linecap="round" stroke-linejoin="round" stroke-miterlimit="10" d="&#10;&#9;&#9;M822.9,548" transform="matrix(1, 0, 0, 1, 0, -7.105427357601002e-15)"/><path fill="none" stroke="#DE212F" stroke-width="7" stroke-linecap="round" stroke-linejoin="round" stroke-miterlimit="10" d="&#10;&#9;&#9;M642.4,595.8h28c11.6,0,21-9.4,21-21v-40.6c0-12,9.7-21.7,21.7-21.7h18.5l0,0c0,6.9,5.6,12.5,12.5,12.5h11.3&#10;&#9;&#9;c6.9,0,12.5-5.6,12.5-12.5l0,0h33.3c12,0,21.7,9.7,21.7,21.7V548" transform="matrix(1, 0, 0, 1, 0, -7.105427357601002e-15)"/><path fill="none" stroke="#DE212F" stroke-width="7" stroke-linecap="round" stroke-linejoin="round" stroke-miterlimit="10" d="&#10;&#9;&#9;M738.9,622" transform="matrix(1, 0, 0, 1, 0, -7.105427357601002e-15)"/><path fill="none" stroke="#DE212F" stroke-width="7" stroke-linecap="round" stroke-linejoin="round" stroke-miterlimit="10" d="&#10;&#9;&#9;M642.4,622h-42.7v-6c0-11.2,9-20.2,20.2-20.2h22.5V622z" transform="matrix(1, 0, 0, 1, 0, -7.105427357601002e-15)"/><path fill="none" stroke="#DE212F" stroke-width="7" stroke-linecap="round" stroke-linejoin="round" stroke-miterlimit="10" d="&#10;&#9;&#9;M642.4,633.2" transform="matrix(1, 0, 0, 1, 0, -7.105427357601002e-15)"/><path d="M 713.099976 595.799988 L 713.099976 548" fill="none" stroke="#DE212F" stroke-width="7" stroke-linecap="round" stroke-linejoin="round" stroke-miterlimit="10" transform="matrix(1, 0, 0, 1, 0, -7.105427357601002e-15)"/><path d="M 586.5 622 H 754.899994 V 633.2 H 586.5 V 622 Z" fill="none" stroke="#DE212F" stroke-width="7" stroke-linecap="round" stroke-linejoin="round" stroke-miterlimit="10" transform="matrix(1, 0, 0, 1, 0, -7.105427357601002e-15)"/><path d="M 457.799988 633.200012 L 432.5 633.200012" fill="none" stroke="#DE212F" stroke-width="7" stroke-linecap="round" stroke-linejoin="round" stroke-miterlimit="10" transform="matrix(1, 0, 0, 1, 0, -7.105427357601002e-15)"/><path d="M 822.900024 595.799988 L 822.900024 633.200012" fill="none" stroke="#DE212F" stroke-width="7" stroke-linecap="round" stroke-linejoin="round" stroke-miterlimit="10" transform="matrix(1, 0, 0, 1, 0, -7.105427357601002e-15)"/><path fill="none" stroke="#DE212F" stroke-width="7" stroke-linecap="round" stroke-linejoin="round" stroke-miterlimit="10" d="&#10;&#9;&#9;M887.5,581.5L887.5,581.5c-12.9,0-23.5-10.6-23.5-23.5v-23.5c0-12.9,10.6-23.5,23.5-23.5l0,0c12.9,0,23.5,10.6,23.5,23.5V558&#10;&#9;&#9;C911,570.9,900.4,581.5,887.5,581.5z" transform="matrix(1, 0, 0, 1, 0, -7.105427357601002e-15)"/><path d="M 864 534.5 L 911 534.5" fill="none" stroke="#DE212F" stroke-width="7" stroke-linecap="round" stroke-linejoin="round" stroke-miterlimit="10" transform="matrix(1, 0, 0, 1, 0, -7.105427357601002e-15)"/><path d="M 864 546.200012 L 911 546.200012" fill="none" stroke="#DE212F" stroke-width="7" stroke-linecap="round" stroke-linejoin="round" stroke-miterlimit="10" transform="matrix(1, 0, 0, 1, 0, -7.105427357601002e-15)"/><path d="M 864 558 L 911 558" fill="none" stroke="#DE212F" stroke-width="7" stroke-linecap="round" stroke-linejoin="round" stroke-miterlimit="10" transform="matrix(1, 0, 0, 1, 0, -7.105427357601002e-15)"/><path d="M 887.5 525 L 887.5 618.5" fill="none" stroke="#DE212F" stroke-width="7" stroke-linecap="round" stroke-linejoin="round" stroke-miterlimit="10" transform="matrix(1, 0, 0, 1, 0, -7.105427357601002e-15)"/><path fill="none" stroke="#DE212F" stroke-width="7" stroke-linecap="round" stroke-linejoin="round" stroke-miterlimit="10" d="&#10;&#9;&#9;&#9;M387.5,371.2l-12.3,3.7c-6.9,2.1-14.1-1.9-16.2-8.7l-19.3-64.7l124.9-37.3l19.3,64.7c2.1,6.9-1.9,14.1-8.7,16.2l-73.9,22.1" transform="matrix(1, 0, 0, 1, 0, -1.4210854715202004e-14)"/><path fill="none" stroke="#DE212F" stroke-width="7" stroke-linecap="round" stroke-linejoin="round" stroke-miterlimit="10" d="&#10;&#9;&#9;&#9;M419.4,211.4L335,272.8c-5.8,4.2-7.1,12.4-2.9,18.2l7.6,10.5l105.4-76.6l-7.6-10.5C433.3,208.5,425.2,207.2,419.4,211.4z" transform="matrix(1, 0, 0, 1, 0, -1.4210854715202004e-14)"/><path d="M 329.799988 281.200012 L 361.299988 285.799988" fill="none" stroke="#DE212F" stroke-width="7" stroke-linecap="round" stroke-linejoin="round" stroke-miterlimit="10" transform="matrix(1, 0, 0, 1, 0, -1.4210854715202004e-14)"/><path d="M 350.700012 261.299988 L 387.5 266.700012" fill="none" stroke="#DE212F" stroke-width="7" stroke-linecap="round" stroke-linejoin="round" stroke-miterlimit="10" transform="matrix(1, 0, 0, 1, 0, -1.4210854715202004e-14)"/><path d="M 377 242.199997 L 413.799988 247.600006" fill="none" stroke="#DE212F" stroke-width="7" stroke-linecap="round" stroke-linejoin="round" stroke-miterlimit="10" transform="matrix(1, 0, 0, 1, 0, -1.4210854715202004e-14)"/><path d="M 403.299988 223.100006 L 440.100006 228.5" fill="none" stroke="#DE212F" stroke-width="7" stroke-linecap="round" stroke-linejoin="round" stroke-miterlimit="10" transform="matrix(1, 0, 0, 1, 0, -1.4210854715202004e-14)"/><path d="M 340.700012 282.200012 H 471.000015 V 308.200012 H 340.700012 V 282.200012 Z" transform="matrix(0.9581000804901123, -0.2864000201225281, 0.2864000201225281, 0.9581000804901123, -67.5624008178711, 128.63890075683594)" fill="none" stroke="#DE212F" stroke-width="7" stroke-linecap="round" stroke-linejoin="round" stroke-miterlimit="10"/><path d="M 347.200012 326.399994 L 365.200012 293.799988" fill="none" stroke="#DE212F" stroke-width="7" stroke-linecap="round" stroke-linejoin="round" stroke-miterlimit="10" transform="matrix(1, 0, 0, 1, 0, -1.4210854715202004e-14)"/><path d="M 378.299988 317.100006 L 396.399994 284.5" fill="none" stroke="#DE212F" stroke-width="7" stroke-linecap="round" stroke-linejoin="round" stroke-miterlimit="10" transform="matrix(1, 0, 0, 1, 0, -1.4210854715202004e-14)"/><path d="M 409.5 307.700012 L 427.5 275.200012" fill="none" stroke="#DE212F" stroke-width="7" stroke-linecap="round" stroke-linejoin="round" stroke-miterlimit="10" transform="matrix(1, 0, 0, 1, 0, -1.4210854715202004e-14)"/><path d="M 440.600006 298.399994 L 458.600006 265.899994" fill="none" stroke="#DE212F" stroke-width="7" stroke-linecap="round" stroke-linejoin="round" stroke-miterlimit="10" transform="matrix(1, 0, 0, 1, 0, -1.4210854715202004e-14)"/><path d="M 470.5 246.600006 L 485.600006 228.100006" fill="none" stroke="#DE212F" stroke-width="7" stroke-linecap="round" stroke-linejoin="round" stroke-miterlimit="10" transform="matrix(1, 0, 0, 1, 0, -1.4210854715202004e-14)"/><path d="M 476.5 256.299988 L 508 243.399994" fill="none" stroke="#DE212F" stroke-width="7" stroke-linecap="round" stroke-linejoin="round" stroke-miterlimit="10" transform="matrix(1, 0, 0, 1, 0, -1.4210854715202004e-14)"/><path fill="none" stroke="#DE212F" stroke-width="7" stroke-linecap="round" stroke-linejoin="round" stroke-miterlimit="10" d="&#10;&#9;&#9;M503.2,533.4v-41.9c0-5.3,5.6-8.7,10.3-6.2l40.6,21c5.1,2.6,5.1,9.9,0,12.5l-40.6,21C508.8,542.1,503.2,538.7,503.2,533.4z" transform="matrix(1, 0, 0, 1, 0, -7.105427357601002e-15)"/><path d="M 1032.199951171875 492.70001220703125 L 992.5 502.8999938964844 L 1003.2999877929688 462.70001220703125 Z" fill="none" stroke="#DE212F" stroke-width="7" stroke-linecap="round" stroke-linejoin="round" stroke-miterlimit="10" transform="matrix(1, 0, 0, 1, 0, -1.4210854715202004e-14)"/><path fill="none" stroke="#DE212F" stroke-width="7" stroke-linecap="round" stroke-linejoin="round" stroke-miterlimit="10" d="&#10;&#9;&#9;&#9;M1040.5,527.2l-6.7-1.8c-5.3-1.4-8.5-6.9-7-12.3l11.4-42.2c1.4-5.3,6.9-8.5,12.3-7l88,23.8c5.3,1.4,8.5,6.9,7,12.3l-11.4,42.2&#10;&#9;&#9;&#9;c-1.4,5.3-6.9,8.5-12.3,7l-65.9-17.8" transform="matrix(1, 0, 0, 1, 0, -1.4210854715202004e-14)"/><path d="M 1111.899975 441 A 30.299999 30.299999 0 0 1 1081.599976 471.299999 A 30.299999 30.299999 0 0 1 1051.299976 441 A 30.299999 30.299999 0 0 1 1081.599976 410.700001 A 30.299999 30.299999 0 0 1 1111.899975 441 Z" transform="matrix(0.2604999840259552, -0.9655000567436218, 0.9655000567436218, 0.2604999840259552, 374.03979492187494, 1370.3067626953125)" fill="none" stroke="#DE212F" stroke-width="7" stroke-linecap="round" stroke-linejoin="round" stroke-miterlimit="10"/><path d="M 1091.499975 441 A 9.9 9.9 0 0 1 1081.599976 450.9 A 9.9 9.9 0 0 1 1071.699976 441 A 9.9 9.9 0 0 1 1081.599976 431.1 A 9.9 9.9 0 0 1 1091.499975 441 Z" transform="matrix(0.2604999840259552, -0.9655000567436218, 0.9655000567436218, 0.2604999840259552, 374.03979492187494, 1370.3067626953125)" fill="none" stroke="#DE212F" stroke-width="7" stroke-linecap="round" stroke-linejoin="round" stroke-miterlimit="10"/><path d="M 1150.599951 463 A 21.4 21.4 0 0 1 1129.199951 484.4 A 21.4 21.4 0 0 1 1107.799952 463 A 21.4 21.4 0 0 1 1129.199951 441.6 A 21.4 21.4 0 0 1 1150.599951 463 Z" transform="matrix(0.2604999840259552, -0.9655000567436218, 0.9655000567436218, 0.2604999840259552, 388.0184020996093, 1432.57470703125)" fill="none" stroke="#DE212F" stroke-width="7" stroke-linecap="round" stroke-linejoin="round" stroke-miterlimit="10"/><path d="M 1067.300049 485.200012 L 1094.400024 492.5 L 1098.599976 507.399994 L 1126.900024 515.099976" fill="none" stroke="#DE212F" stroke-width="7" stroke-linecap="round" stroke-linejoin="round" stroke-miterlimit="10" transform="matrix(1, 0, 0, 1, 0, -1.4210854715202004e-14)"/><path d="M 1073.8 366.100006 A 5.3 5.3 0 0 1 1068.5 371.400006 A 5.3 5.3 0 0 1 1063.2 366.100006 A 5.3 5.3 0 0 1 1068.5 360.800006 A 5.3 5.3 0 0 1 1073.8 366.100006 Z" fill="#DE212F" transform="matrix(1, 0, 0, 1, 0, -7.105427357601002e-15)"/><path d="M 1143.200025 614.5 A 5.3 5.3 0 0 1 1137.900024 619.8 A 5.3 5.3 0 0 1 1132.600024 614.5 A 5.3 5.3 0 0 1 1137.900024 609.2 A 5.3 5.3 0 0 1 1143.200025 614.5 Z" fill="#DE212F" transform="matrix(1, 0, 0, 1, 0, -7.105427357601002e-15)"/><path d="M 766.200025 665.799988 A 5.3 5.3 0 0 1 760.900024 671.099988 A 5.3 5.3 0 0 1 755.600024 665.799988 A 5.3 5.3 0 0 1 760.900024 660.499988 A 5.3 5.3 0 0 1 766.200025 665.799988 Z" fill="#DE212F" transform="matrix(1, 0, 0, 1, 0, -7.105427357601002e-15)"/><path d="M 864.000012 193 A 5.3 5.3 0 0 1 858.700012 198.3 A 5.3 5.3 0 0 1 853.400012 193 A 5.3 5.3 0 0 1 858.700012 187.7 A 5.3 5.3 0 0 1 864.000012 193 Z" fill="#DE212F" transform="matrix(1, 0, 0, 1, 0, -7.105427357601002e-15)"/><path d="M 341.8 441.5 A 5.3 5.3 0 0 1 336.5 446.8 A 5.3 5.3 0 0 1 331.2 441.5 A 5.3 5.3 0 0 1 336.5 436.2 A 5.3 5.3 0 0 1 341.8 441.5 Z" fill="#DE212F" transform="matrix(1, 0, 0, 1, 0, -7.105427357601002e-15)"/><path d="M 278.599988 285.799988 A 5.3 5.3 0 0 1 273.299988 291.099988 A 5.3 5.3 0 0 1 267.999988 285.799988 A 5.3 5.3 0 0 1 273.299988 280.499988 A 5.3 5.3 0 0 1 278.599988 285.799988 Z" fill="#DE212F" transform="matrix(1, 0, 0, 1, 0, -7.105427357601002e-15)"/><path d="M 419.099988 741 A 5.3 5.3 0 0 1 413.799988 746.3 A 5.3 5.3 0 0 1 408.499988 741 A 5.3 5.3 0 0 1 413.799988 735.7 A 5.3 5.3 0 0 1 419.099988 741 Z" fill="#DE212F" transform="matrix(1, 0, 0, 1, 0, -7.105427357601002e-15)"/><path d="M 869.3 462.700012 A 5.3 5.3 0 0 1 864 468.000012 A 5.3 5.3 0 0 1 858.7 462.700012 A 5.3 5.3 0 0 1 864 457.400012 A 5.3 5.3 0 0 1 869.3 462.700012 Z" fill="#DE212F" transform="matrix(1, 0, 0, 1, 0, -7.105427357601002e-15)"/><path d="M 760.200025 271.299988 A 5.3 5.3 0 0 1 754.900024 276.599988 A 5.3 5.3 0 0 1 749.600024 271.299988 A 5.3 5.3 0 0 1 754.900024 265.999988 A 5.3 5.3 0 0 1 760.200025 271.299988 Z" fill="#DE212F" transform="matrix(1, 0, 0, 1, 0, -7.105427357601002e-15)"/><path fill="none" stroke="#DE212F" stroke-width="7" stroke-linecap="round" stroke-linejoin="round" stroke-miterlimit="10" d="&#10;&#9;&#9;&#9;M965,199.6c6-10.1,17-16.8,29.6-16.8c19,0,34.4,15.4,34.4,34.4s-15.4,34.4-34.4,34.4c-15.1,0-28-9.8-32.6-23.3" transform="matrix(1, 0, 0, 1, 0, -1.4210854715202004e-14)"/><path fill="none" stroke="#DE212F" stroke-width="7" stroke-linecap="round" stroke-linejoin="round" stroke-miterlimit="10" d="&#10;&#9;&#9;&#9;M1014.5,245.1c0,0-1.6,59.4-70.2,63.5c-65.3,3.9-90.3-46.5-92-71.1c-0.4-5.1,3.7-9.4,8.8-9.4l0,0c4.6,0,8.4,3.5,8.8,8&#10;&#9;&#9;&#9;c0.7,8,4.3,20.5,18.3,29.7c0,0-1.2-15.8,6.6-17.9s9.1,9.9,9.1,9.9s17.7-11.6,29.5-12c0,0-0.6-14.4,7.7-14c8.3,0.4,12,8.7,12,8.7&#10;&#9;&#9;&#9;s8.5-5,12-5.8" transform="matrix(1, 0, 0, 1, 0, -1.4210854715202004e-14)"/><path fill="none" stroke="#DE212F" stroke-width="7" stroke-linecap="round" stroke-linejoin="round" stroke-miterlimit="10" d="&#10;&#9;&#9;&#9;M957.1,271.3c0,0-5.9-15.5,0-16.1s16.2,8.1,16.2,8.1" transform="matrix(1, 0, 0, 1, 0, -1.4210854715202004e-14)"/><path fill="none" stroke="#DE212F" stroke-width="7" stroke-linecap="round" stroke-linejoin="round" stroke-miterlimit="10" d="&#10;&#9;&#9;&#9;M924.1,281.9c0,0-5.9-15.5,0-16.1c5.9-0.6,16.2,8.1,16.2,8.1" transform="matrix(1, 0, 0, 1, 0, -1.4210854715202004e-14)"/><path d="M 965 199.600006 L 975.099976 165 L 987.900024 183.399994" fill="none" stroke="#DE212F" stroke-width="7" stroke-linecap="round" stroke-linejoin="round" stroke-miterlimit="10" transform="matrix(1, 0, 0, 1, 0, -1.4210854715202004e-14)"/><path d="M 1028.400024 210.600006 L 1028.400024 167.399994 L 1006.900024 185" fill="none" stroke="#DE212F" stroke-width="7" stroke-linecap="round" stroke-linejoin="round" stroke-miterlimit="10" transform="matrix(1, 0, 0, 1, 0, -1.4210854715202004e-14)"/><path fill="none" stroke="#DE212F" stroke-width="7" stroke-linecap="round" stroke-linejoin="round" stroke-miterlimit="10" d="&#10;&#9;&#9;&#9;M1009.2,224.5c0,0,21.1-2.5,41.8,2.2" transform="matrix(1, 0, 0, 1, 0, -1.4210854715202004e-14)"/><path fill="none" stroke="#DE212F" stroke-width="7" stroke-linecap="round" stroke-linejoin="round" stroke-miterlimit="10" d="&#10;&#9;&#9;&#9;M1005.5,234.7c0,0,29.4,5.6,38.1,11.8" transform="matrix(1, 0, 0, 1, 0, -1.4210854715202004e-14)"/><path fill="none" stroke="#DE212F" stroke-width="7" stroke-linecap="round" stroke-linejoin="round" stroke-miterlimit="10" d="&#10;&#9;&#9;&#9;M969.1,210.5c0,0-15.3-6.5-30.7-9.3" transform="matrix(1, 0, 0, 1, 0, -1.4210854715202004e-14)"/><path fill="none" stroke="#DE212F" stroke-width="7" stroke-linecap="round" stroke-linejoin="round" stroke-miterlimit="10" d="&#10;&#9;&#9;&#9;M966.7,220.8c0,0-21.3-4.9-29.7-2.3" transform="matrix(1, 0, 0, 1, 0, -1.4210854715202004e-14)"/><path fill="none" stroke="#DE212F" stroke-width="7" stroke-linecap="round" stroke-linejoin="round" stroke-miterlimit="10" d="&#10;&#9;&#9;&#9;M946.3,291.7c0,0,3.4,2.5,6.7,16.1" transform="matrix(1, 0, 0, 1, 0, -1.4210854715202004e-14)"/><path fill="none" stroke="#DE212F" stroke-width="7" stroke-linecap="round" stroke-linejoin="round" stroke-miterlimit="10" d="&#10;&#9;&#9;&#9;M967.4,286c0,0,2.3,1.1,7.8,15.7" transform="matrix(1, 0, 0, 1, 0, -1.4210854715202004e-14)"/><path fill="none" stroke="#DE212F" stroke-width="7" stroke-linecap="round" stroke-linejoin="round" stroke-miterlimit="10" d="&#10;&#9;&#9;&#9;M986.3,273.9c0,0,3.3,4,8.3,14.9" transform="matrix(1, 0, 0, 1, 0, -1.4210854715202004e-14)"/><g transform="matrix(1, 0, 0, 1, 0, -1.4210854715202004e-14)">
			<path fill="none" stroke="#DE212F" stroke-width="7" stroke-linecap="round" stroke-linejoin="round" stroke-miterlimit="10" d="&#10;&#9;&#9;&#9;&#9;M295,525.8c10.7-3.3,22.3-4,34-1.6c36.7,7.7,60.2,43.7,52.5,80.4c-7.7,36.7-43.7,60.2-80.4,52.5s-60.2-43.7-52.5-80.4&#10;&#9;&#9;&#9;&#9;c4.1-19.7,16.4-35.5,32.5-44.8"/>
			
				<path d="M 336.6 590.700012 A 21.6 21.6 0 0 1 315 612.300013 A 21.6 21.6 0 0 1 293.4 590.700012 A 21.6 21.6 0 0 1 315 569.100012 A 21.6 21.6 0 0 1 336.6 590.700012 Z" transform="matrix(0.2055 -0.9787 0.9787 0.2055 -327.8694 777.5552)" fill="none" stroke="#DE212F" stroke-width="7" stroke-linecap="round" stroke-linejoin="round" stroke-miterlimit="10"/>
			
				<path d="M 335.899994 545.900024 A 11.5 11.5 0 0 1 324.399994 557.400024 A 11.5 11.5 0 0 1 312.899994 545.900024 A 11.5 11.5 0 0 1 324.399994 534.400024 A 11.5 11.5 0 0 1 335.899994 545.900024 Z" transform="matrix(0.2055 -0.9787 0.9787 0.2055 -276.491 751.1392)" fill="none" stroke="#DE212F" stroke-width="7" stroke-linecap="round" stroke-linejoin="round" stroke-miterlimit="10"/>
			
				<path d="M 286.700012 567.900024 A 11.5 11.5 0 0 1 275.200012 579.400024 A 11.5 11.5 0 0 1 263.700012 567.900024 A 11.5 11.5 0 0 1 275.200012 556.400024 A 11.5 11.5 0 0 1 286.700012 567.900024 Z" transform="matrix(0.4979 -0.8672 0.8672 0.4979 -354.3114 523.8351)" fill="none" stroke="#DE212F" stroke-width="7" stroke-linecap="round" stroke-linejoin="round" stroke-miterlimit="10"/>
			
				<path d="M 292.5 621.5 A 11.5 11.5 0 0 1 281 633 A 11.5 11.5 0 0 1 269.5 621.5 A 11.5 11.5 0 0 1 281 610 A 11.5 11.5 0 0 1 292.5 621.5 Z" transform="matrix(0.7415 -0.6709 0.6709 0.7415 -344.3357 349.1682)" fill="none" stroke="#DE212F" stroke-width="7" stroke-linecap="round" stroke-linejoin="round" stroke-miterlimit="10"/>
			
				<path d="M 345.200012 632.5 A 11.5 11.5 0 0 1 333.700012 644 A 11.5 11.5 0 0 1 322.200012 632.5 A 11.5 11.5 0 0 1 333.700012 621 A 11.5 11.5 0 0 1 345.200012 632.5 Z" transform="matrix(0.9125 -0.409 0.409 0.9125 -229.5033 191.7926)" fill="none" stroke="#DE212F" stroke-width="7" stroke-linecap="round" stroke-linejoin="round" stroke-miterlimit="10"/>
			
				<path d="M 372 585.799988 A 11.5 11.5 0 0 1 360.5 597.299988 A 11.5 11.5 0 0 1 349 585.799988 A 11.5 11.5 0 0 1 360.5 574.299988 A 11.5 11.5 0 0 1 372 585.799988 Z" transform="matrix(0.9943 -0.107 0.107 0.9943 -60.5882 41.922)" fill="none" stroke="#DE212F" stroke-width="7" stroke-linecap="round" stroke-linejoin="round" stroke-miterlimit="10"/>
		</g><path d="M 312.899994 658.599976 L 386.399994 668.799988" fill="none" stroke="#DE212F" stroke-width="7" stroke-linecap="round" stroke-linejoin="round" stroke-miterlimit="10" transform="matrix(1, 0, 0, 1, 0, -1.4210854715202004e-14)"/><path fill="none" stroke="#DE212F" stroke-width="7" stroke-linecap="round" stroke-linejoin="round" stroke-miterlimit="10" d="&#10;&#9;&#9;M727.1,190.1c12.9-2.4,21.5-14.8,19.1-27.8c-2.2-11.7-12.6-19.8-24.1-19.5c-5.8-22.1-27.8-36.2-50.6-32&#10;&#9;&#9;c-11.3,2.1-20.8,8.3-27.2,16.8c-3.9-0.8-8.1-0.8-12.3,0c-17.3,3.2-28.9,19.3-26.8,36.5c0,0,0,0-0.1,0&#10;&#9;&#9;c-12.9,2.4-21.5,14.8-19.1,27.8c2.4,12.9,14.8,21.5,27.8,19.1l38.5-7.1l-4.9-26.2l-14.1,2.6l18.4-34l31.3,25.1l-14.6,2.7l4.8,25.9&#10;&#9;&#9;L727.1,190.1z" transform="matrix(1, 0, 0, 1, 0, -7.105427357601002e-15)"/><path fill="none" stroke="#DE212F" stroke-width="7" stroke-linecap="round" stroke-linejoin="round" stroke-miterlimit="10" d="&#10;&#9;&#9;&#9;M706.7,774.5c-1,4.9-9,7.2-11.1,11.5c-2.2,4.4,0.8,12.2-2.4,15.8c-3.2,3.6-11.3,1.7-15.4,4.4c-4,2.7-5.4,10.9-10,12.5&#10;&#9;&#9;&#9;c-4.5,1.5-10.6-4.2-15.5-3.9c-4.7,0.3-10,6.8-14.9,5.8c-4.9-1-7.2-9-11.5-11.1c-4.4-2.2-12.2,0.8-15.8-2.4&#10;&#9;&#9;&#9;c-3.6-3.2-1.7-11.3-4.4-15.4c-2.7-4-10.9-5.4-12.5-10c-1.5-4.5,4.2-10.6,3.9-15.5c-0.3-4.7-6.8-10-5.8-14.9c1-4.9,9-7.2,11.1-11.5&#10;&#9;&#9;&#9;c2.2-4.4-0.8-12.2,2.4-15.8c3.2-3.6,11.3-1.7,15.4-4.4s5.4-10.9,10-12.5c4.5-1.5,10.6,4.2,15.5,3.9c4.7-0.3,10-6.8,14.9-5.8&#10;&#9;&#9;&#9;c4.9,1,7.2,9,11.5,11.1c4.4,2.2,12.2-0.8,15.8,2.4c3.6,3.2,1.7,11.3,4.4,15.4c2.7,4,10.9,5.4,12.5,10c1.5,4.5-4.2,10.6-3.9,15.5&#10;&#9;&#9;&#9;C701.2,764.3,707.7,769.6,706.7,774.5z" transform="matrix(1, 0, 0, 1, 0, -1.4210854715202004e-14)"/><path d="M 656.2999877929688 727.0999755859375 L 662.5999755859375 750.7999877929688 L 685.7999877929688 759.0999755859375 L 665.0999755859375 772.5 L 664.4000244140625 797 L 645.4000244140625 781.5 L 621.7999877929688 788.5 L 630.5999755859375 765.5 L 616.7000122070312 745.2000122070312 L 641.2999877929688 746.5999755859375 Z" fill="none" stroke="#DE212F" stroke-width="7" stroke-linecap="round" stroke-linejoin="round" stroke-miterlimit="10" transform="matrix(1, 0, 0, 1, 0, -1.4210854715202004e-14)"/><path d="M 608.299988 803.400024 L 578 840.5 L 603 839.799988 L 606.900024 861 L 635.799988 819.799988" fill="none" stroke="#DE212F" stroke-width="7" stroke-linecap="round" stroke-linejoin="round" stroke-miterlimit="10" transform="matrix(1, 0, 0, 1, 0, -1.4210854715202004e-14)"/><path d="M 672.400024 816.200012 L 686 862.200012 L 663.200012 851.900024 L 651.400024 869.900024 L 640.599976 820.799988" fill="none" stroke="#DE212F" stroke-width="7" stroke-linecap="round" stroke-linejoin="round" stroke-miterlimit="10" transform="matrix(1, 0, 0, 1, 0, -1.4210854715202004e-14)"/><path d="M 948.900024 721.400024 H 1082.000031 V 777.800026 H 948.900024 V 721.400024 Z" transform="matrix(0.9470000863075256, 0.3214000165462494, -0.3214000165462494, 0.9470000863075256, 294.76199340820307, -286.5874938964844)" fill="none" stroke="#DE212F" stroke-width="7" stroke-linecap="round" stroke-linejoin="round" stroke-miterlimit="10"/><path d="M 1034.200001 749.599976 A 18.700001 18.700001 0 0 1 1015.5 768.299976 A 18.700001 18.700001 0 0 1 996.799999 749.599976 A 18.700001 18.700001 0 0 1 1015.5 730.899975 A 18.700001 18.700001 0 0 1 1034.200001 749.599976 Z" transform="matrix(0.3214000165462494, -0.9470000863075256, 0.9470000863075256, 0.3214000165462494, -20.673799514770508, 1470.26513671875)" fill="none" stroke="#DE212F" stroke-width="7" stroke-linecap="round" stroke-linejoin="round" stroke-miterlimit="10"/><path d="M 939.299988 766.900024 L 1065.300049 809.700012" fill="none" stroke="#DE212F" stroke-width="7" stroke-linecap="round" stroke-linejoin="round" stroke-miterlimit="10" transform="matrix(1, 0, 0, 1, 0, -1.4210854715202004e-14)"/><path d="M 935 779.5 L 1061.099976 822.200012" fill="none" stroke="#DE212F" stroke-width="7" stroke-linecap="round" stroke-linejoin="round" stroke-miterlimit="10" transform="matrix(1, 0, 0, 1, 0, -1.4210854715202004e-14)"/><path d="M 930.799988 792 L 1056.800049 834.799988" fill="none" stroke="#DE212F" stroke-width="7" stroke-linecap="round" stroke-linejoin="round" stroke-miterlimit="10" transform="matrix(1, 0, 0, 1, 0, -1.4210854715202004e-14)"/>
</svg>